<svg viewBox="0 0 100 100" fill="none" xmlns="http://www.w3.org/2000/svg">
  <!-- Outer ring - top arc -->
  <path d="M85 50c0-19.3-15.7-35-35-35S15 30.7 15 50" stroke="#0F1020" stroke-width="10" fill="none"/>
  <!-- Outer ring - bottom arc -->
  <path d="M15 50c0 19.3 15.7 35 35 35s35-15.7 35-35" stroke="#0F1020" stroke-width="10" fill="none"/>
  <!-- Middle ring - top arc -->
  <path d="M72 50c0-12.2-9.8-22-22-22S28 37.8 28 50" stroke="#0F1020" stroke-width="8" fill="none"/>
  <!-- Middle ring - bottom arc -->
  <path d="M28 50c0 12.2 9.8 22 22 22s22-9.8 22-22" stroke="#0F1020" stroke-width="8" fill="none"/>
  <!-- Inner ring with purple accent - top arc -->
  <path d="M62 50c0-6.6-5.4-12-12-12s-12 5.4-12 12" stroke="#8B92B3" stroke-width="6" fill="none"/>
  <!-- Inner ring with purple accent - bottom arc -->
  <path d="M38 50c0 6.6 5.4 12 12 12s12-5.4 12-12" stroke="#8B92B3" stroke-width="6" fill="none"/>
  <!-- Opening gap on the right side -->
  <rect x="72" y="44" width="20" height="12" fill="white"/>
</svg>
